<mxfile host="Electron" agent="Mozilla/5.0 (Windows NT 10.0; Win64; x64) AppleWebKit/537.36 (KHTML, like Gecko) draw.io/26.0.7 Chrome/128.0.6613.186 Electron/32.2.5 Safari/537.36" version="26.0.7">
  <diagram name="Page-1" id="w3LG-THpLxGAcx7kfPLm">
    <mxGraphModel dx="1290" dy="621" grid="1" gridSize="10" guides="1" tooltips="1" connect="1" arrows="1" fold="1" page="1" pageScale="1" pageWidth="850" pageHeight="1100" math="0" shadow="0">
      <root>
        <mxCell id="0" />
        <mxCell id="1" parent="0" />
        <mxCell id="8AnDgc-Jwe0BBC9Kbj3x-16" value="" style="rounded=0;whiteSpace=wrap;html=1;" vertex="1" parent="1">
          <mxGeometry x="310" y="90" width="280" height="850" as="geometry" />
        </mxCell>
        <mxCell id="8AnDgc-Jwe0BBC9Kbj3x-17" value="Gameshop" style="rounded=1;whiteSpace=wrap;html=1;" vertex="1" parent="1">
          <mxGeometry x="390" y="100" width="120" height="60" as="geometry" />
        </mxCell>
        <mxCell id="8AnDgc-Jwe0BBC9Kbj3x-18" value="view/home/about" style="ellipse;whiteSpace=wrap;html=1;" vertex="1" parent="1">
          <mxGeometry x="380" y="210" width="130" height="70" as="geometry" />
        </mxCell>
        <mxCell id="8AnDgc-Jwe0BBC9Kbj3x-19" value="&lt;div&gt;view product list&lt;/div&gt;&lt;div&gt;&lt;br&gt;&lt;/div&gt;" style="ellipse;whiteSpace=wrap;html=1;" vertex="1" parent="1">
          <mxGeometry x="380" y="380" width="130" height="70" as="geometry" />
        </mxCell>
        <mxCell id="8AnDgc-Jwe0BBC9Kbj3x-20" value="view game list" style="ellipse;whiteSpace=wrap;html=1;" vertex="1" parent="1">
          <mxGeometry x="380" y="480" width="130" height="70" as="geometry" />
        </mxCell>
        <mxCell id="8AnDgc-Jwe0BBC9Kbj3x-21" value="&lt;div&gt;manage games&lt;/div&gt;" style="ellipse;whiteSpace=wrap;html=1;" vertex="1" parent="1">
          <mxGeometry x="380" y="590" width="130" height="70" as="geometry" />
        </mxCell>
        <mxCell id="8AnDgc-Jwe0BBC9Kbj3x-22" value="update stock" style="ellipse;whiteSpace=wrap;html=1;" vertex="1" parent="1">
          <mxGeometry x="380" y="700" width="130" height="70" as="geometry" />
        </mxCell>
        <mxCell id="8AnDgc-Jwe0BBC9Kbj3x-23" value="manage products" style="ellipse;whiteSpace=wrap;html=1;" vertex="1" parent="1">
          <mxGeometry x="385" y="820" width="130" height="60" as="geometry" />
        </mxCell>
        <mxCell id="8AnDgc-Jwe0BBC9Kbj3x-24" value="Guest&lt;div&gt;&lt;br&gt;&lt;/div&gt;" style="shape=umlActor;verticalLabelPosition=bottom;verticalAlign=top;html=1;outlineConnect=0;" vertex="1" parent="1">
          <mxGeometry x="180" y="120" width="50" height="120" as="geometry" />
        </mxCell>
        <mxCell id="8AnDgc-Jwe0BBC9Kbj3x-25" value="User&lt;div&gt;&lt;br&gt;&lt;/div&gt;" style="shape=umlActor;verticalLabelPosition=bottom;verticalAlign=top;html=1;outlineConnect=0;" vertex="1" parent="1">
          <mxGeometry x="680" y="340" width="50" height="120" as="geometry" />
        </mxCell>
        <mxCell id="8AnDgc-Jwe0BBC9Kbj3x-26" value="Admin&lt;div&gt;&lt;br&gt;&lt;/div&gt;" style="shape=umlActor;verticalLabelPosition=bottom;verticalAlign=top;html=1;outlineConnect=0;" vertex="1" parent="1">
          <mxGeometry x="170" y="550" width="50" height="120" as="geometry" />
        </mxCell>
        <mxCell id="8AnDgc-Jwe0BBC9Kbj3x-28" value="" style="endArrow=classic;html=1;rounded=0;exitX=1;exitY=1;exitDx=0;exitDy=0;exitPerimeter=0;strokeColor=light-dark(#FF0000,#FFFFFF);" edge="1" parent="1" source="8AnDgc-Jwe0BBC9Kbj3x-26" target="8AnDgc-Jwe0BBC9Kbj3x-21">
          <mxGeometry width="50" height="50" relative="1" as="geometry">
            <mxPoint x="240" y="670" as="sourcePoint" />
            <mxPoint x="290" y="620" as="targetPoint" />
          </mxGeometry>
        </mxCell>
        <mxCell id="8AnDgc-Jwe0BBC9Kbj3x-29" value="" style="endArrow=classic;html=1;rounded=0;entryX=0;entryY=0.5;entryDx=0;entryDy=0;exitX=0.5;exitY=0.5;exitDx=0;exitDy=0;exitPerimeter=0;strokeColor=light-dark(#FF0000,#FFFFFF);" edge="1" parent="1" source="8AnDgc-Jwe0BBC9Kbj3x-26" target="8AnDgc-Jwe0BBC9Kbj3x-22">
          <mxGeometry width="50" height="50" relative="1" as="geometry">
            <mxPoint x="240" y="760" as="sourcePoint" />
            <mxPoint x="290" y="710" as="targetPoint" />
          </mxGeometry>
        </mxCell>
        <mxCell id="8AnDgc-Jwe0BBC9Kbj3x-30" value="" style="endArrow=classic;html=1;rounded=0;entryX=-0.003;entryY=0.393;entryDx=0;entryDy=0;entryPerimeter=0;strokeColor=light-dark(#FF0000,#FFFFFF);" edge="1" parent="1" source="8AnDgc-Jwe0BBC9Kbj3x-26" target="8AnDgc-Jwe0BBC9Kbj3x-23">
          <mxGeometry width="50" height="50" relative="1" as="geometry">
            <mxPoint x="210" y="790" as="sourcePoint" />
            <mxPoint x="260" y="740" as="targetPoint" />
          </mxGeometry>
        </mxCell>
        <mxCell id="8AnDgc-Jwe0BBC9Kbj3x-31" value="" style="endArrow=classic;html=1;rounded=0;entryX=0;entryY=0.5;entryDx=0;entryDy=0;strokeColor=light-dark(#FF0000,#FFFFFF);" edge="1" parent="1" source="8AnDgc-Jwe0BBC9Kbj3x-26" target="8AnDgc-Jwe0BBC9Kbj3x-20">
          <mxGeometry width="50" height="50" relative="1" as="geometry">
            <mxPoint x="240" y="610" as="sourcePoint" />
            <mxPoint x="290" y="560" as="targetPoint" />
          </mxGeometry>
        </mxCell>
        <mxCell id="8AnDgc-Jwe0BBC9Kbj3x-32" value="" style="endArrow=classic;html=1;rounded=0;entryX=0;entryY=0;entryDx=0;entryDy=0;exitX=1;exitY=0.3333333333333333;exitDx=0;exitDy=0;exitPerimeter=0;strokeColor=light-dark(#FF0000,#FFFFFF);" edge="1" parent="1" source="8AnDgc-Jwe0BBC9Kbj3x-26" target="8AnDgc-Jwe0BBC9Kbj3x-20">
          <mxGeometry width="50" height="50" relative="1" as="geometry">
            <mxPoint x="220" y="560" as="sourcePoint" />
            <mxPoint x="270" y="510" as="targetPoint" />
          </mxGeometry>
        </mxCell>
        <mxCell id="8AnDgc-Jwe0BBC9Kbj3x-33" value="" style="endArrow=classic;html=1;rounded=0;exitX=0.5;exitY=0;exitDx=0;exitDy=0;exitPerimeter=0;entryX=0;entryY=0.5;entryDx=0;entryDy=0;strokeColor=light-dark(#FF0000,#FFFFFF);" edge="1" parent="1" source="8AnDgc-Jwe0BBC9Kbj3x-26" target="8AnDgc-Jwe0BBC9Kbj3x-19">
          <mxGeometry width="50" height="50" relative="1" as="geometry">
            <mxPoint x="210" y="540" as="sourcePoint" />
            <mxPoint x="260" y="490" as="targetPoint" />
          </mxGeometry>
        </mxCell>
        <mxCell id="8AnDgc-Jwe0BBC9Kbj3x-34" value="" style="endArrow=classic;html=1;rounded=0;exitX=0.5;exitY=0;exitDx=0;exitDy=0;exitPerimeter=0;entryX=0;entryY=1;entryDx=0;entryDy=0;strokeColor=light-dark(#FF0000,#FFFFFF);" edge="1" parent="1" source="8AnDgc-Jwe0BBC9Kbj3x-26" target="8AnDgc-Jwe0BBC9Kbj3x-18">
          <mxGeometry width="50" height="50" relative="1" as="geometry">
            <mxPoint x="230" y="550" as="sourcePoint" />
            <mxPoint x="280" y="500" as="targetPoint" />
          </mxGeometry>
        </mxCell>
        <mxCell id="8AnDgc-Jwe0BBC9Kbj3x-42" value="" style="endArrow=classic;html=1;rounded=0;exitX=0;exitY=1;exitDx=0;exitDy=0;exitPerimeter=0;entryX=1;entryY=0.5;entryDx=0;entryDy=0;" edge="1" parent="1" source="8AnDgc-Jwe0BBC9Kbj3x-25" target="8AnDgc-Jwe0BBC9Kbj3x-20">
          <mxGeometry width="50" height="50" relative="1" as="geometry">
            <mxPoint x="640" y="560" as="sourcePoint" />
            <mxPoint x="690" y="510" as="targetPoint" />
          </mxGeometry>
        </mxCell>
        <mxCell id="8AnDgc-Jwe0BBC9Kbj3x-43" value="" style="endArrow=classic;html=1;rounded=0;exitX=0;exitY=0.3333333333333333;exitDx=0;exitDy=0;exitPerimeter=0;entryX=1;entryY=0.5;entryDx=0;entryDy=0;" edge="1" parent="1" source="8AnDgc-Jwe0BBC9Kbj3x-25" target="8AnDgc-Jwe0BBC9Kbj3x-19">
          <mxGeometry width="50" height="50" relative="1" as="geometry">
            <mxPoint x="640" y="320" as="sourcePoint" />
            <mxPoint x="690" y="270" as="targetPoint" />
          </mxGeometry>
        </mxCell>
        <mxCell id="8AnDgc-Jwe0BBC9Kbj3x-44" value="" style="endArrow=classic;html=1;rounded=0;exitX=0.5;exitY=0;exitDx=0;exitDy=0;exitPerimeter=0;entryX=1;entryY=0.5;entryDx=0;entryDy=0;" edge="1" parent="1" source="8AnDgc-Jwe0BBC9Kbj3x-25" target="8AnDgc-Jwe0BBC9Kbj3x-18">
          <mxGeometry width="50" height="50" relative="1" as="geometry">
            <mxPoint x="680" y="300" as="sourcePoint" />
            <mxPoint x="730" y="250" as="targetPoint" />
          </mxGeometry>
        </mxCell>
        <mxCell id="8AnDgc-Jwe0BBC9Kbj3x-45" value="&lt;div&gt;Signup/Login&lt;/div&gt;" style="ellipse;whiteSpace=wrap;html=1;" vertex="1" parent="1">
          <mxGeometry x="380" y="300" width="130" height="70" as="geometry" />
        </mxCell>
        <mxCell id="8AnDgc-Jwe0BBC9Kbj3x-46" value="" style="endArrow=classic;html=1;rounded=0;exitX=0.25;exitY=0.1;exitDx=0;exitDy=0;exitPerimeter=0;" edge="1" parent="1" source="8AnDgc-Jwe0BBC9Kbj3x-25" target="8AnDgc-Jwe0BBC9Kbj3x-45">
          <mxGeometry width="50" height="50" relative="1" as="geometry">
            <mxPoint x="610" y="390" as="sourcePoint" />
            <mxPoint x="660" y="340" as="targetPoint" />
          </mxGeometry>
        </mxCell>
        <mxCell id="8AnDgc-Jwe0BBC9Kbj3x-47" value="" style="endArrow=classic;html=1;rounded=0;exitX=1;exitY=1;exitDx=0;exitDy=0;exitPerimeter=0;strokeColor=light-dark(#0000FF,#FFFFFF);" edge="1" parent="1" source="8AnDgc-Jwe0BBC9Kbj3x-24" target="8AnDgc-Jwe0BBC9Kbj3x-18">
          <mxGeometry width="50" height="50" relative="1" as="geometry">
            <mxPoint x="240" y="240" as="sourcePoint" />
            <mxPoint x="290" y="190" as="targetPoint" />
          </mxGeometry>
        </mxCell>
        <mxCell id="8AnDgc-Jwe0BBC9Kbj3x-48" value="" style="endArrow=classic;html=1;rounded=0;entryX=0.052;entryY=0.263;entryDx=0;entryDy=0;entryPerimeter=0;strokeColor=light-dark(#0000FF,#FFFFFF);" edge="1" parent="1" source="8AnDgc-Jwe0BBC9Kbj3x-24" target="8AnDgc-Jwe0BBC9Kbj3x-45">
          <mxGeometry width="50" height="50" relative="1" as="geometry">
            <mxPoint x="220" y="330" as="sourcePoint" />
            <mxPoint x="270" y="280" as="targetPoint" />
          </mxGeometry>
        </mxCell>
      </root>
    </mxGraphModel>
  </diagram>
</mxfile>
